<svg width="2681" height="442" viewBox="0 0 2681 442" fill="none" xmlns="http://www.w3.org/2000/svg">
<path d="M1155.62 329.908C1139.32 329.908 1124.2 327.257 1110.26 321.955C1096.51 316.652 1084.53 309.19 1074.32 299.567C1064.3 289.944 1056.45 278.652 1050.75 265.691C1045.26 252.729 1042.51 238.589 1042.51 223.271C1042.51 207.953 1045.26 193.814 1050.75 180.852C1056.45 167.891 1064.4 156.599 1074.62 146.976C1084.83 137.353 1096.81 129.89 1110.55 124.588C1124.3 119.285 1139.23 116.634 1155.33 116.634C1171.63 116.634 1186.55 119.285 1200.11 124.588C1213.85 129.89 1225.73 137.353 1235.75 146.976C1245.96 156.599 1253.91 167.891 1259.61 180.852C1265.31 193.617 1268.15 207.757 1268.15 223.271C1268.15 238.589 1265.31 252.827 1259.61 265.985C1253.91 278.947 1245.96 290.239 1235.75 299.862C1225.73 309.288 1213.85 316.652 1200.11 321.955C1186.55 327.257 1171.73 329.908 1155.62 329.908ZM1155.33 289.257C1164.56 289.257 1173 287.686 1180.66 284.544C1188.52 281.401 1195.39 276.884 1201.28 270.993C1207.18 265.101 1211.69 258.13 1214.83 250.078C1218.17 242.026 1219.84 233.091 1219.84 223.271C1219.84 213.452 1218.17 204.517 1214.83 196.465C1211.69 188.413 1207.18 181.441 1201.28 175.55C1195.59 169.658 1188.81 165.141 1180.96 161.999C1173.1 158.857 1164.56 157.286 1155.33 157.286C1146.1 157.286 1137.56 158.857 1129.7 161.999C1122.04 165.141 1115.27 169.658 1109.38 175.55C1103.48 181.441 1098.87 188.413 1095.53 196.465C1092.39 204.517 1090.82 213.452 1090.82 223.271C1090.82 232.894 1092.39 241.83 1095.53 250.078C1098.87 258.13 1103.39 265.101 1109.08 270.993C1114.97 276.884 1121.85 281.401 1129.7 284.544C1137.56 287.686 1146.1 289.257 1155.33 289.257ZM1397.1 165.534C1409.67 165.534 1420.87 168.087 1430.69 173.193C1440.7 178.103 1448.56 185.762 1454.25 196.17C1459.95 206.382 1462.79 219.54 1462.79 235.644V326.374H1416.84V242.713C1416.84 229.948 1413.99 220.522 1408.3 214.434C1402.8 208.346 1394.94 205.302 1384.73 205.302C1377.47 205.302 1370.89 206.873 1364.99 210.015C1359.3 212.961 1354.78 217.576 1351.44 223.861C1348.3 230.145 1346.73 238.197 1346.73 248.016V326.374H1300.78V167.891H1344.67V211.783L1336.42 198.527C1342.12 187.922 1350.27 179.772 1360.87 174.077C1371.48 168.382 1383.55 165.534 1397.1 165.534ZM1504.45 326.374V107.797H1550.4V326.374H1504.45ZM1613.08 385.878C1604.84 385.878 1596.69 384.602 1588.63 382.049C1580.58 379.496 1574 375.961 1568.9 371.444L1585.69 338.746C1589.22 341.888 1593.25 344.343 1597.77 346.11C1602.48 347.878 1607.09 348.761 1611.61 348.761C1618.09 348.761 1623.2 347.19 1626.93 344.048C1630.86 341.102 1634.39 336.095 1637.53 329.025L1645.78 309.583L1649.32 304.575L1706.17 167.891H1750.36L1678.78 336.095C1673.67 348.86 1667.78 358.875 1661.1 366.142C1654.62 373.408 1647.35 378.514 1639.3 381.46C1631.45 384.405 1622.71 385.878 1613.08 385.878ZM1640.19 332.56L1569.49 167.891H1616.91L1671.71 300.451L1640.19 332.56ZM1954.46 329.908C1938.55 329.908 1923.72 327.355 1909.98 322.249C1896.43 316.947 1884.64 309.484 1874.63 299.862C1864.61 290.239 1856.76 278.947 1851.06 265.985C1845.56 253.024 1842.81 238.786 1842.81 223.271C1842.81 207.757 1845.56 193.519 1851.06 180.558C1856.76 167.596 1864.61 156.304 1874.63 146.681C1884.84 137.058 1896.72 129.694 1910.27 124.588C1923.82 119.285 1938.65 116.634 1954.75 116.634C1972.62 116.634 1988.73 119.776 2003.06 126.061C2017.6 132.149 2029.77 141.182 2039.59 153.162L2008.96 181.441C2001.89 173.39 1994.03 167.4 1985.39 163.472C1976.75 159.348 1967.32 157.286 1957.11 157.286C1947.49 157.286 1938.65 158.857 1930.6 161.999C1922.55 165.141 1915.57 169.658 1909.68 175.55C1903.79 181.441 1899.18 188.413 1895.84 196.465C1892.7 204.517 1891.12 213.452 1891.12 223.271C1891.12 233.091 1892.7 242.026 1895.84 250.078C1899.18 258.13 1903.79 265.101 1909.68 270.993C1915.57 276.884 1922.55 281.401 1930.6 284.544C1938.65 287.686 1947.49 289.257 1957.11 289.257C1967.32 289.257 1976.75 287.293 1985.39 283.365C1994.03 279.241 2001.89 273.055 2008.96 264.807L2039.59 293.086C2029.77 305.066 2017.6 314.198 2003.06 320.482C1988.73 326.766 1972.53 329.908 1954.46 329.908ZM2040.98 326.374L2132.89 120.169H2180.02L2272.22 326.374H2222.14L2146.73 144.325H2165.58L2089.88 326.374H2040.98ZM2086.93 282.187L2099.6 245.954H2205.65L2218.61 282.187H2086.93ZM2293.61 326.374V120.169L2382.87 120.169C2401.33 120.169 2417.24 123.213 2430.59 129.301C2443.95 135.193 2454.26 143.735 2461.52 154.929C2468.79 166.123 2472.42 179.477 2472.42 194.992C2472.42 210.31 2468.79 223.566 2461.52 234.76C2454.26 245.757 2443.95 254.202 2430.59 260.094C2417.24 265.985 2401.33 268.931 2382.87 268.931H2320.13L2341.34 248.016V326.374H2293.61ZM2424.7 326.374L2373.15 251.551H2424.11L2476.25 326.374H2424.7ZM2341.34 253.318L2320.13 230.93H2380.22C2394.95 230.93 2405.95 227.788 2413.21 221.504C2420.48 215.023 2424.11 206.186 2424.11 194.992C2424.11 183.602 2420.48 174.764 2413.21 168.48C2405.95 162.196 2394.95 159.053 2380.22 159.053H2320.13L2341.34 136.371V253.318ZM2577.99 329.908C2561.49 329.908 2545.68 327.748 2530.56 323.428C2515.44 318.911 2503.26 313.118 2494.03 306.048L2510.23 270.109C2519.07 276.394 2529.48 281.598 2541.46 285.722C2553.63 289.65 2565.91 291.613 2578.28 291.613C2587.71 291.613 2595.27 290.73 2600.96 288.962C2606.85 286.998 2611.17 284.347 2613.92 281.009C2616.67 277.67 2618.05 273.841 2618.05 269.52C2618.05 264.021 2615.89 259.701 2611.57 256.559C2607.25 253.22 2601.55 250.569 2594.48 248.605C2587.41 246.445 2579.56 244.481 2570.92 242.713C2562.47 240.75 2553.93 238.393 2545.29 235.644C2536.84 232.894 2529.09 229.359 2522.02 225.039C2514.95 220.718 2509.15 215.023 2504.64 207.953C2500.31 200.883 2498.15 191.85 2498.15 180.852C2498.15 169.069 2501.3 158.366 2507.58 148.743C2514.06 138.924 2523.68 131.167 2536.45 125.472C2549.41 119.58 2565.61 116.634 2585.06 116.634C2598.02 116.634 2610.78 118.205 2623.35 121.347C2635.92 124.293 2647.01 128.81 2656.64 134.898L2641.91 171.131C2632.29 165.632 2622.66 161.606 2613.04 159.053C2603.42 156.304 2593.99 154.929 2584.76 154.929C2575.53 154.929 2567.97 156.009 2562.08 158.17C2556.19 160.33 2551.96 163.178 2549.41 166.712C2546.86 170.051 2545.58 173.979 2545.58 178.496C2545.58 183.798 2547.74 188.118 2552.06 191.457C2556.38 194.599 2562.08 197.152 2569.15 199.116C2576.22 201.08 2583.97 203.044 2592.42 205.008C2601.06 206.971 2609.6 209.23 2618.05 211.783C2626.69 214.336 2634.54 217.773 2641.61 222.093C2648.68 226.414 2654.38 232.109 2658.7 239.179C2663.22 246.248 2665.47 255.184 2665.47 265.985C2665.47 277.572 2662.23 288.177 2655.75 297.8C2649.27 307.422 2639.55 315.18 2626.59 321.071C2613.83 326.963 2597.62 329.908 2577.99 329.908Z" fill="#4361EE"/>
<path fill-rule="evenodd" clip-rule="evenodd" d="M113.058 413.35C148.633 432.45 188.593 442 232.696 442C276.798 442 316.515 432.45 351.846 413.35C387.176 394.004 414.954 367.803 435.178 334.5C440.082 326.305 444.399 317.865 448.125 309.184C451.761 317.865 455.974 326.305 460.761 334.5C480.984 367.803 508.762 394.004 544.093 413.35C579.667 432.45 619.627 442 663.73 442C707.832 442 747.549 432.45 782.88 413.35C818.211 394.249 845.744 368.048 866.212 334.5L865.568 334.185C865.701 333.963 865.834 333.742 865.967 333.52C871.328 324.705 875.957 315.399 879.856 305.849C894.475 271.077 865.723 232.387 826.494 238.509C808.951 241.202 794.575 254.425 788.483 271.077C786.047 278.423 782.879 285.035 779.224 291.647C768.016 312.461 752.178 328.378 731.954 339.887C711.73 351.641 689.07 357.518 663.973 357.518C638.876 357.518 616.215 351.641 595.991 339.887C575.768 328.378 559.686 312.461 547.99 291.647C536.637 271.011 531.031 247.728 530.935 221.559C530.935 221.463 530.935 221.368 530.935 221.272L530.935 221.122C530.935 194.676 536.539 171.168 547.991 150.353C559.687 129.539 575.768 113.622 595.992 102.113C616.216 90.359 638.876 84.482 663.973 84.482C689.07 84.482 711.731 90.359 731.955 102.113C752.179 113.622 768.016 129.539 779.225 150.353C782.88 156.965 786.047 163.577 788.484 170.923C794.575 187.575 808.951 200.798 826.495 203.491C865.724 209.613 894.476 170.923 879.857 136.151C875.958 126.601 871.329 117.295 865.968 108.48C865.835 108.258 865.702 108.036 865.569 107.815L866.211 107.5C845.743 73.9524 818.21 47.7507 782.879 28.6504C747.548 9.55014 707.832 0 663.729 0C619.627 0 579.666 9.55014 543.848 28.1607C508.517 47.5058 480.74 73.7075 460.516 107.011C455.72 115.223 451.5 123.68 447.858 132.38C444.193 124.005 439.965 115.874 435.178 107.99C414.71 74.1972 387.176 47.7507 351.846 28.6504C316.515 9.55014 276.798 0 232.696 0C188.593 0 148.633 9.55014 113.058 28.8953C77.7277 47.9956 49.9504 74.4421 29.7266 108.235C9.99008 141.538 0 179.249 0 221.122C0 262.996 9.99008 300.707 29.7266 334.5C50.194 368.048 77.7277 394.249 113.058 413.35ZM200.475 354.337L205.407 339.399C206.626 335.481 210.524 332.788 214.666 332.788H249.51C253.652 332.788 257.551 335.481 258.769 339.399L263.789 354.604C276.874 351.816 289.17 347.17 300.677 340.622C320.901 328.868 336.739 312.461 347.947 291.891C355.126 279.116 360.102 265.325 362.874 250.463L348.431 246.834C344.045 245.854 341.121 241.936 341.121 237.284V203.491C341.121 199.083 344.045 195.165 348.431 193.941L362.605 190.379C359.786 176.051 354.9 162.726 347.947 150.353C336.495 129.539 320.901 113.622 300.677 102.113C280.453 90.359 257.793 84.482 232.696 84.482C207.599 84.482 184.938 90.359 164.714 102.113C144.491 113.377 128.409 129.539 116.713 150.109C109.789 162.693 105.003 176.262 102.301 190.871L114.52 193.941C118.906 195.165 121.83 199.083 121.83 203.491V237.284C121.83 241.691 118.906 245.609 114.52 246.834L102.13 249.947C104.799 264.912 109.641 278.793 116.713 291.647C128.409 312.461 144.491 328.623 164.714 340.377C175.891 346.872 187.811 351.498 200.475 354.337ZM156.674 195.898C151.314 195.898 146.928 200.306 146.928 205.693V239.241C146.928 242.669 148.877 246.097 151.801 247.811L215.153 284.298C225.63 290.42 238.544 290.42 249.022 284.298L312.617 247.811C315.541 246.097 317.49 242.914 317.49 239.486V205.693C317.49 200.306 313.104 195.898 307.744 195.898H156.674Z" fill="url(#paint0_linear_845_5607)"/>
<defs>
<linearGradient id="paint0_linear_845_5607" x1="203.998" y1="-2.4829e-07" x2="203.999" y2="501.5" gradientUnits="userSpaceOnUse">
<stop stop-color="#0C69FF"/>
<stop offset="0.460769" stop-color="#33A1FD"/>
<stop offset="0.991916" stop-color="#12D9DF"/>
</linearGradient>
</defs>
</svg>
